<?xml version="1.0" encoding="UTF-8" standalone="no"?>
<!DOCTYPE svg PUBLIC "-//W3C//DTD SVG 1.1//EN" "http://www.w3.org/Graphics/SVG/1.1/DTD/svg11.dtd">
<svg width="100%" height="100%" viewBox="0 0 80 90" version="1.1" xmlns="http://www.w3.org/2000/svg" xmlns:xlink="http://www.w3.org/1999/xlink" xml:space="preserve" xmlns:serif="http://www.serif.com/" style="fill-rule:evenodd;clip-rule:evenodd;stroke-linejoin:round;stroke-miterlimit:1.41421;">
    <g transform="matrix(1,0,0,1,-10.5838,-4.44698)">
        <path d="M53.93,55.72C53.93,51.594 52.704,47.741 50.624,44.479C50.802,44.355 50.966,44.21 51.091,44.023C51.479,43.439 51.481,42.681 51.098,42.096L26.946,5.238C26.575,4.672 25.909,4.37 25.24,4.464C24.57,4.558 24.014,5.029 23.812,5.675L10.664,47.734C10.455,48.402 10.665,49.131 11.197,49.586C11.521,49.863 11.926,50.006 12.334,50.006C12.429,50.006 12.523,49.989 12.617,49.974C12.098,51.802 11.801,53.724 11.801,55.72C11.801,67.287 21.205,76.785 32.865,76.785C44.526,76.785 53.93,67.381 53.93,55.72ZM42.115,40.583C41.446,40.559 40.757,40.54 40.029,40.534L44.628,38.607L46.086,40.833C44.964,40.727 43.614,40.637 42.115,40.583ZM26.047,10.253L29.223,15.099L23.818,17.385L26.047,10.253ZM22.071,22.972L31.561,18.667L33.502,21.629L20.815,26.991L22.071,22.972ZM19.053,32.627L35.835,25.189L37.999,28.492L17.688,36.996L19.053,32.627ZM15.924,42.637L40.333,32.054L42.321,35.088L27.271,41.66C24.615,42.167 22.179,42.805 20.049,43.455C18.136,44.038 16.469,44.631 15.139,45.148L15.924,42.637ZM32.865,73.494C23.085,73.494 15.092,65.5 15.092,55.72C15.092,53.067 15.697,50.554 16.75,48.287C19.961,47.06 25.02,45.419 30.838,44.607C37.343,43.699 43.242,44.054 46.547,44.406C49.099,47.485 50.639,51.43 50.639,55.72C50.639,65.5 42.645,73.494 32.865,73.494ZM25.53,52.335C24.59,52.335 23.744,52.899 23.744,52.899C22.897,53.369 21.863,53.275 21.393,52.429C20.922,51.583 21.111,50.548 21.863,50.078C21.957,49.984 23.367,49.044 25.248,48.95C27.129,48.856 28.634,49.514 28.822,49.608C29.668,50.078 29.95,51.018 29.574,51.865C29.292,52.429 28.728,52.805 28.164,52.805C27.881,52.899 27.599,52.805 27.411,52.711C27.411,52.711 26.471,52.241 25.53,52.335ZM45.467,50.924C45.185,51.489 44.62,51.865 44.056,51.865C43.774,51.865 43.492,51.771 43.21,51.677C43.21,51.677 42.269,51.207 41.329,51.301C40.389,51.301 39.542,51.865 39.542,51.865C38.696,52.335 37.661,52.147 37.191,51.395C36.721,50.548 36.909,49.514 37.661,49.044C37.755,48.95 39.166,48.009 41.047,47.915C42.928,47.821 44.432,48.479 44.62,48.573C45.467,48.95 45.749,49.984 45.467,50.924ZM43.398,60.705C43.304,61.081 41.141,67.569 34.652,68.04C28.069,68.51 25.06,62.209 24.966,62.021C24.496,60.987 24.966,59.67 26.001,59.2C27.035,58.73 41.047,57.695 42.081,58.071C43.116,58.448 43.868,59.576 43.398,60.705ZM63.24,68.322C62.864,68.792 62.206,69.074 61.641,68.98C61.359,69.074 61.077,68.886 60.983,68.792C60.983,68.792 60.137,68.134 59.196,68.039C58.256,67.851 57.315,68.228 57.315,68.228C56.375,68.604 55.341,68.322 55.059,67.381C54.682,66.441 55.059,65.406 55.905,65.124C56.093,65.124 57.598,64.372 59.478,64.654C61.359,64.936 62.676,65.877 62.864,65.971C63.616,66.535 63.804,67.569 63.24,68.322ZM70.763,69.168C70.387,68.228 70.763,67.193 71.609,66.911C71.797,66.911 73.302,66.159 75.183,66.441C77.064,66.723 78.38,67.663 78.568,67.757C79.321,68.322 79.415,69.356 79.038,70.296C78.662,70.767 78.004,71.049 77.44,70.955C77.252,70.861 76.97,70.767 76.687,70.579C76.687,70.579 75.841,69.92 74.901,69.826C73.96,69.638 73.02,70.014 73.02,70.014C72.08,70.391 71.045,70.014 70.763,69.168ZM72.55,77.349C73.302,77.726 73.678,78.76 73.114,79.606C73.02,79.888 70.387,84.778 65.121,84.214C59.949,83.65 58.444,78.196 58.35,78.008C58.162,77.067 58.632,76.127 59.572,75.939C60.513,75.751 71.797,76.879 72.55,77.349ZM89.833,30.945C89.825,30.285 89.446,29.685 88.854,29.394C88.263,29.104 87.554,29.17 87.027,29.57L58.209,51.374C57.648,51.798 57.396,52.516 57.568,53.196C57.657,53.549 57.854,53.853 58.116,54.083C57.213,54.509 56.347,54.994 55.529,55.532C55.529,55.626 55.529,55.626 55.529,55.72C55.529,57.225 55.341,58.636 55.153,60.046C57.6,57.815 60.602,56.253 63.941,55.639C66.718,56.411 70.365,57.628 74.112,59.465C77.525,61.138 80.485,63.062 82.732,64.694C84.093,67.205 84.869,70.074 84.869,73.118C84.869,82.898 76.876,90.891 67.096,90.891C57.315,90.891 49.322,82.898 49.322,73.118C49.322,72.459 49.322,71.801 49.416,71.143C48.382,72.271 47.253,73.212 46.031,74.152C46.595,85.249 55.811,94.182 67.002,94.182C78.568,94.182 88.066,84.778 88.066,73.118C88.079,71.566 87.908,70.056 87.596,68.597C87.871,68.763 88.183,68.852 88.5,68.852C88.737,68.852 88.976,68.803 89.201,68.704C89.845,68.423 90.258,67.784 90.25,67.081L89.833,30.945ZM75.653,56.322C71.572,54.322 67.652,53.02 64.696,52.208C64.23,52.081 63.784,51.963 63.37,51.858L86.373,34.454L86.706,63.298C86.165,62.874 85.547,62.407 84.879,61.92C82.493,60.183 79.343,58.131 75.653,56.322Z" style="fill-rule:nonzero;"/>
    </g>
</svg>
